<svg viewBox="0 0 1200 600" xmlns="http://www.w3.org/2000/svg" role="img" font-family="Segoe UI, Arial, Helvetica, sans-serif">
<title>SPX daily Kalman-Keltner chart study</title>
<desc>Candlestick chart of SPX daily bars with the Kalman-Keltner study: a fast centerline coloured blue while rising and yellow while falling, a slower drift line (the weekly Kalman estimate) in light blue and gold, inner Keltner bands green in bullish drift and red in bearish, and neutral outer bands. Markers show bars where the zone score fired. Generated by the production Python engine with illustrative parameters.</desc>
<rect x="0" y="0" width="1200" height="600" fill="#05080B"/>
<rect x="14" y="62" width="1112" height="460" fill="#080C10"/>
<line x1="14" y1="445.3" x2="1126" y2="445.3" stroke="#1B242C"/>
<text x="1132" y="448.3" font-size="10" fill="#7C8B9A">6,632</text>
<line x1="14" y1="368.7" x2="1126" y2="368.7" stroke="#1B242C"/>
<text x="1132" y="371.7" font-size="10" fill="#7C8B9A">6,886</text>
<line x1="14" y1="292.0" x2="1126" y2="292.0" stroke="#1B242C"/>
<text x="1132" y="295.0" font-size="10" fill="#7C8B9A">7,139</text>
<line x1="14" y1="215.3" x2="1126" y2="215.3" stroke="#1B242C"/>
<text x="1132" y="218.3" font-size="10" fill="#7C8B9A">7,392</text>
<line x1="14" y1="138.7" x2="1126" y2="138.7" stroke="#1B242C"/>
<text x="1132" y="141.7" font-size="10" fill="#7C8B9A">7,645</text>
<line x1="217.9" y1="62" x2="217.9" y2="522" stroke="#1B242C" stroke-opacity="0.7"/>
<text x="217.9" y="538" font-size="10" fill="#7C8B9A" text-anchor="middle">May</text>
<line x1="465.0" y1="62" x2="465.0" y2="522" stroke="#1B242C" stroke-opacity="0.7"/>
<text x="465.0" y="538" font-size="10" fill="#7C8B9A" text-anchor="middle">Jun</text>
<line x1="724.4" y1="62" x2="724.4" y2="522" stroke="#1B242C" stroke-opacity="0.7"/>
<text x="724.4" y="538" font-size="10" fill="#7C8B9A" text-anchor="middle">Jul</text>
<line x1="996.3" y1="62" x2="996.3" y2="522" stroke="#1B242C" stroke-opacity="0.7"/>
<text x="996.3" y="538" font-size="10" fill="#7C8B9A" text-anchor="middle">Aug</text>
<polyline points="20.2,376.6 32.5,375.0 44.9,371.5 57.2,366.7 69.6,361.7 82.0,356.8 94.3,348.7 106.7,343.3 119.0,337.1 131.4,331.2 143.7,325.3 156.1,320.2 168.4,315.8 180.8,311.6 193.2,308.4 205.5,302.8 217.9,296.9 230.2,292.1 242.6,286.6 254.9,278.8 267.3,272.4 279.6,265.9 292.0,259.9 304.4,254.1 316.7,247.5 329.1,240.3 341.4,233.9 353.8,229.2 366.1,225.9 378.5,221.7 390.8,217.3 403.2,212.6 415.6,207.2 427.9,203.4 440.3,198.6 452.6,193.9 465.0,188.8 477.3,184.3 489.7,180.0 502.0,175.8 514.4,169.8 526.8,168.8 539.1,164.3 551.5,164.1 563.8,163.1 576.2,162.5 588.5,157.4 600.9,155.6 613.2,153.2 625.6,151.6 638.0,150.7 650.3,150.4 662.7,151.2 675.0,152.1 687.4,153.3 699.7,153.5 712.1,152.9 724.4,152.0 736.8,150.0 749.2,148.6 761.5,147.9 773.9,147.7 786.2,146.8 798.6,145.2 810.9,144.0 823.3,143.6 835.6,142.5 848.0,141.5 860.4,141.0 872.7,141.2 885.1,141.1 897.4,141.7 909.8,141.6 922.1,143.0 934.5,143.3 946.8,144.7 959.2,144.6 971.6,144.1 983.9,143.3 996.3,140.2 1008.6,133.3 1021.0,128.1 1033.3,124.9 1045.7,121.2 1058.0,118.2 1070.4,115.1 1082.8,112.4 1095.1,108.3 1107.5,105.4 1119.8,103.0" fill="none" stroke="#5B6B7A" stroke-width="1.2" stroke-opacity="0.9"/>
<polyline points="20.2,497.4 32.5,492.0 44.9,488.6 57.2,482.9 69.6,475.7 82.0,467.7 94.3,460.5 106.7,452.0 119.0,445.7 131.4,438.8 143.7,433.7 156.1,426.8 168.4,419.0 180.8,413.2 193.2,407.2 205.5,402.4 217.9,395.4 230.2,389.9 242.6,383.9 254.9,377.9 267.3,370.4 279.6,362.9 292.0,354.7 304.4,348.7 316.7,342.5 329.1,335.0 341.4,330.1 353.8,325.6 366.1,321.6 378.5,317.6 390.8,313.1 403.2,307.2 415.6,301.1 427.9,294.5 440.3,288.7 452.6,281.7 465.0,275.5 477.3,269.0 489.7,264.1 502.0,260.6 514.4,263.5 526.8,262.7 539.1,268.4 551.5,271.0 563.8,274.0 576.2,273.5 588.5,271.8 600.9,267.7 613.2,267.5 625.6,265.7 638.0,263.3 650.3,264.9 662.7,265.6 675.0,266.5 687.4,268.0 699.7,268.3 712.1,266.2 724.4,264.0 736.8,263.2 749.2,260.2 761.5,257.6 773.9,256.9 786.2,254.5 798.6,251.8 810.9,249.4 823.3,246.4 835.6,243.5 848.0,241.6 860.4,242.3 872.7,241.8 885.1,241.1 897.4,239.1 909.8,241.6 922.1,241.9 934.5,243.2 946.8,243.7 959.2,247.0 971.6,249.5 983.9,250.2 996.3,249.0 1008.6,246.2 1021.0,239.8 1033.3,233.7 1045.7,227.9 1058.0,221.3 1070.4,216.1 1082.8,210.7 1095.1,205.7 1107.5,200.0 1119.8,195.3" fill="none" stroke="#5B6B7A" stroke-width="1.2" stroke-opacity="0.9"/>
<polyline points="20.2,406.8 32.5,404.3 44.9,400.8 57.2,395.7 69.6,390.2" fill="none" stroke="#EF4444" stroke-width="1.5" stroke-opacity="0.95"/><polyline points="69.6,390.2 82.0,384.6 94.3,376.7 106.7,370.5 119.0,364.3 131.4,358.1 143.7,352.4 156.1,346.8 168.4,341.6 180.8,337.0 193.2,333.1 205.5,327.7 217.9,321.5 230.2,316.6 242.6,311.0 254.9,303.6 267.3,296.9 279.6,290.1 292.0,283.6 304.4,277.8 316.7,271.2 329.1,263.9 341.4,257.9 353.8,253.3 366.1,249.8 378.5,245.7 390.8,241.3 403.2,236.2 415.6,230.7 427.9,226.2 440.3,221.1 452.6,215.8 465.0,210.5 477.3,205.5 489.7,201.0 502.0,197.0 514.4,193.2 526.8,192.3 539.1,190.3 551.5,190.8 563.8,190.9 576.2,190.2 588.5,186.0 600.9,183.6 613.2,181.8 625.6,180.1 638.0,178.8 650.3,179.0 662.7,179.8 675.0,180.7 687.4,182.0 699.7,182.2 712.1,181.2 724.4,180.0 736.8,178.3 749.2,176.5 761.5,175.3 773.9,175.0 786.2,173.8 798.6,171.9 810.9,170.3 823.3,169.3 835.6,167.8 848.0,166.5 860.4,166.3 872.7,166.3 885.1,166.1 897.4,166.0 909.8,166.6 922.1,167.8 934.5,168.3 946.8,169.4 959.2,170.2 971.6,170.5 983.9,170.0 996.3,167.4 1008.6,161.5 1021.0,156.0 1033.3,152.1 1045.7,147.9 1058.0,144.0 1070.4,140.4 1082.8,137.0 1095.1,132.6 1107.5,129.0 1119.8,126.0" fill="none" stroke="#22C55E" stroke-width="1.5" stroke-opacity="0.95"/>
<polyline points="20.2,467.2 32.5,462.8 44.9,459.3 57.2,453.9 69.6,447.2" fill="none" stroke="#EF4444" stroke-width="1.5" stroke-opacity="0.95"/><polyline points="69.6,447.2 82.0,440.0 94.3,432.6 106.7,424.9 119.0,418.5 131.4,411.9 143.7,406.6 156.1,400.1 168.4,393.2 180.8,387.8 193.2,382.5 205.5,377.5 217.9,370.8 230.2,365.4 242.6,359.6 254.9,353.1 267.3,345.9 279.6,338.6 292.0,331.0 304.4,325.1 316.7,318.8 329.1,311.3 341.4,306.0 353.8,301.5 366.1,297.6 378.5,293.6 390.8,289.1 403.2,283.5 415.6,277.6 427.9,271.7 440.3,266.2 452.6,259.7 465.0,253.9 477.3,247.8 489.7,243.0 502.0,239.4 514.4,240.1 526.8,239.2 539.1,242.4 551.5,244.3 563.8,246.3 576.2,245.7 588.5,243.2 600.9,239.7 613.2,238.9 625.6,237.2 638.0,235.1 650.3,236.3 662.7,237.0 675.0,237.9 687.4,239.4 699.7,239.6 712.1,237.8 724.4,236.0 736.8,234.9 749.2,232.3 761.5,230.2 773.9,229.6 786.2,227.6 798.6,225.2 810.9,223.1 823.3,220.7 835.6,218.3 848.0,216.6 860.4,217.0 872.7,216.7 885.1,216.1 897.4,214.7 909.8,216.6 922.1,217.2 934.5,218.2 946.8,219.0 959.2,221.4 971.6,223.1 983.9,223.5 996.3,221.8 1008.6,218.0 1021.0,211.9 1033.3,206.5 1045.7,201.2 1058.0,195.5 1070.4,190.9 1082.8,186.1 1095.1,181.4 1107.5,176.3 1119.8,172.2" fill="none" stroke="#22C55E" stroke-width="1.5" stroke-opacity="0.95"/>
<line x1="20.2" y1="383.9" x2="20.2" y2="406.2" stroke="#22C55E" stroke-width="1"/>
<rect x="16.3" y="387.1" width="7.7" height="12.4" fill="#22C55E"/>
<line x1="32.5" y1="380.7" x2="32.5" y2="392.0" stroke="#EF4444" stroke-width="1"/>
<rect x="28.7" y="382.7" width="7.7" height="6.8" fill="#EF4444"/>
<line x1="44.9" y1="368.2" x2="44.9" y2="397.6" stroke="#22C55E" stroke-width="1"/>
<rect x="41.1" y="368.5" width="7.7" height="24.2" fill="#22C55E"/>
<line x1="57.2" y1="343.3" x2="57.2" y2="362.7" stroke="#22C55E" stroke-width="1"/>
<rect x="53.4" y="343.9" width="7.7" height="17.3" fill="#22C55E"/>
<line x1="69.6" y1="326.1" x2="69.6" y2="344.0" stroke="#22C55E" stroke-width="1"/>
<rect x="65.8" y="327.1" width="7.7" height="13.6" fill="#22C55E"/>
<line x1="82.0" y1="318.5" x2="82.0" y2="331.4" stroke="#22C55E" stroke-width="1"/>
<rect x="78.1" y="321.5" width="7.7" height="1.1" fill="#22C55E"/>
<line x1="94.3" y1="289.3" x2="94.3" y2="311.4" stroke="#22C55E" stroke-width="1"/>
<rect x="90.5" y="295.8" width="7.7" height="15.6" fill="#22C55E"/>
<line x1="106.7" y1="296.9" x2="106.7" y2="308.4" stroke="#EF4444" stroke-width="1"/>
<rect x="102.8" y="298.6" width="7.7" height="2.4" fill="#EF4444"/>
<line x1="119.0" y1="292.4" x2="119.0" y2="318.8" stroke="#EF4444" stroke-width="1"/>
<rect x="115.2" y="296.9" width="7.7" height="17.8" fill="#EF4444"/>
<line x1="131.4" y1="292.0" x2="131.4" y2="302.8" stroke="#22C55E" stroke-width="1"/>
<rect x="127.5" y="292.2" width="7.7" height="10.6" fill="#22C55E"/>
<line x1="143.7" y1="289.3" x2="143.7" y2="319.9" stroke="#EF4444" stroke-width="1"/>
<rect x="139.9" y="298.0" width="7.7" height="3.2" fill="#EF4444"/>
<line x1="156.1" y1="282.9" x2="156.1" y2="299.8" stroke="#22C55E" stroke-width="1"/>
<rect x="152.3" y="284.0" width="7.7" height="8.7" fill="#22C55E"/>
<line x1="168.4" y1="279.9" x2="168.4" y2="289.6" stroke="#22C55E" stroke-width="1"/>
<rect x="164.6" y="281.3" width="7.7" height="6.4" fill="#22C55E"/>
<line x1="180.8" y1="287.8" x2="180.8" y2="299.1" stroke="#22C55E" stroke-width="1"/>
<rect x="177.0" y="292.0" width="7.7" height="1.5" fill="#22C55E"/>
<line x1="193.2" y1="289.9" x2="193.2" y2="301.3" stroke="#22C55E" stroke-width="1"/>
<rect x="189.3" y="292.8" width="7.7" height="1.3" fill="#22C55E"/>
<line x1="205.5" y1="267.4" x2="205.5" y2="295.8" stroke="#22C55E" stroke-width="1"/>
<rect x="201.7" y="270.7" width="7.7" height="14.3" fill="#22C55E"/>
<line x1="217.9" y1="251.5" x2="217.9" y2="264.6" stroke="#EF4444" stroke-width="1"/>
<rect x="214.0" y="263.0" width="7.7" height="1.3" fill="#EF4444"/>
<line x1="230.2" y1="259.9" x2="230.2" y2="281.3" stroke="#EF4444" stroke-width="1"/>
<rect x="226.4" y="264.8" width="7.7" height="8.4" fill="#EF4444"/>
<line x1="242.6" y1="251.2" x2="242.6" y2="263.3" stroke="#22C55E" stroke-width="1"/>
<rect x="238.7" y="255.5" width="7.7" height="7.8" fill="#22C55E"/>
<line x1="254.9" y1="222.2" x2="254.9" y2="244.9" stroke="#22C55E" stroke-width="1"/>
<rect x="251.1" y="223.4" width="7.7" height="21.5" fill="#22C55E"/>
<line x1="267.3" y1="217.4" x2="267.3" y2="236.7" stroke="#EF4444" stroke-width="1"/>
<rect x="263.5" y="219.9" width="7.7" height="12.0" fill="#EF4444"/>
<line x1="279.6" y1="212.4" x2="279.6" y2="224.1" stroke="#22C55E" stroke-width="1"/>
<rect x="275.8" y="213.2" width="7.7" height="10.9" fill="#22C55E"/>
<line x1="292.0" y1="204.1" x2="292.0" y2="217.6" stroke="#22C55E" stroke-width="1"/>
<rect x="288.2" y="209.0" width="7.7" height="8.3" fill="#22C55E"/>
<line x1="304.4" y1="210.0" x2="304.4" y2="231.5" stroke="#22C55E" stroke-width="1"/>
<rect x="300.5" y="212.6" width="7.7" height="3.1" fill="#22C55E"/>
<line x1="316.7" y1="194.7" x2="316.7" y2="220.4" stroke="#22C55E" stroke-width="1"/>
<rect x="312.9" y="199.5" width="7.7" height="10.6" fill="#22C55E"/>
<line x1="329.1" y1="177.4" x2="329.1" y2="196.4" stroke="#22C55E" stroke-width="1"/>
<rect x="325.2" y="182.2" width="7.7" height="14.2" fill="#22C55E"/>
<line x1="341.4" y1="196.2" x2="341.4" y2="213.6" stroke="#EF4444" stroke-width="1"/>
<rect x="337.6" y="199.2" width="7.7" height="11.1" fill="#EF4444"/>
<line x1="353.8" y1="202.5" x2="353.8" y2="227.0" stroke="#EF4444" stroke-width="1"/>
<rect x="349.9" y="208.3" width="7.7" height="3.6" fill="#EF4444"/>
<line x1="366.1" y1="214.3" x2="366.1" y2="232.9" stroke="#EF4444" stroke-width="1"/>
<rect x="362.3" y="220.2" width="7.7" height="6.7" fill="#EF4444"/>
<line x1="378.5" y1="202.0" x2="378.5" y2="225.7" stroke="#22C55E" stroke-width="1"/>
<rect x="374.7" y="202.9" width="7.7" height="19.3" fill="#22C55E"/>
<line x1="390.8" y1="192.9" x2="390.8" y2="216.0" stroke="#22C55E" stroke-width="1"/>
<rect x="387.0" y="199.0" width="7.7" height="10.6" fill="#22C55E"/>
<line x1="403.2" y1="180.7" x2="403.2" y2="193.7" stroke="#22C55E" stroke-width="1"/>
<rect x="399.4" y="190.6" width="7.7" height="1.4" fill="#22C55E"/>
<line x1="415.6" y1="170.7" x2="415.6" y2="182.2" stroke="#22C55E" stroke-width="1"/>
<rect x="411.7" y="176.8" width="7.7" height="2.2" fill="#22C55E"/>
<line x1="427.9" y1="173.3" x2="427.9" y2="182.7" stroke="#EF4444" stroke-width="1"/>
<rect x="424.1" y="174.7" width="7.7" height="1.7" fill="#EF4444"/>
<line x1="440.3" y1="161.8" x2="440.3" y2="180.1" stroke="#22C55E" stroke-width="1"/>
<rect x="436.4" y="163.3" width="7.7" height="13.3" fill="#22C55E"/>
<line x1="452.6" y1="152.5" x2="452.6" y2="163.3" stroke="#22C55E" stroke-width="1"/>
<rect x="448.8" y="158.3" width="7.7" height="1.0" fill="#22C55E"/>
<line x1="465.0" y1="146.9" x2="465.0" y2="163.6" stroke="#22C55E" stroke-width="1"/>
<rect x="461.1" y="152.3" width="7.7" height="5.4" fill="#22C55E"/>
<line x1="477.3" y1="145.9" x2="477.3" y2="157.4" stroke="#22C55E" stroke-width="1"/>
<rect x="473.5" y="149.3" width="7.7" height="4.4" fill="#22C55E"/>
<line x1="489.7" y1="150.7" x2="489.7" y2="167.1" stroke="#EF4444" stroke-width="1"/>
<rect x="485.9" y="150.7" width="7.7" height="15.6" fill="#EF4444"/>
<line x1="502.0" y1="152.8" x2="502.0" y2="177.6" stroke="#22C55E" stroke-width="1"/>
<rect x="498.2" y="157.0" width="7.7" height="20.5" fill="#22C55E"/>
<line x1="514.4" y1="169.9" x2="514.4" y2="222.4" stroke="#EF4444" stroke-width="1"/>
<rect x="510.6" y="171.3" width="7.7" height="46.5" fill="#EF4444"/>
<line x1="526.8" y1="192.6" x2="526.8" y2="214.3" stroke="#EF4444" stroke-width="1"/>
<rect x="522.9" y="200.6" width="7.7" height="10.6" fill="#EF4444"/>
<line x1="539.1" y1="187.7" x2="539.1" y2="262.0" stroke="#EF4444" stroke-width="1"/>
<rect x="535.3" y="201.1" width="7.7" height="15.8" fill="#EF4444"/>
<line x1="551.5" y1="213.9" x2="551.5" y2="253.5" stroke="#EF4444" stroke-width="1"/>
<rect x="547.6" y="227.8" width="7.7" height="25.3" fill="#EF4444"/>
<line x1="563.8" y1="209.0" x2="563.8" y2="256.1" stroke="#22C55E" stroke-width="1"/>
<rect x="560.0" y="214.6" width="7.7" height="32.3" fill="#22C55E"/>
<line x1="576.2" y1="195.8" x2="576.2" y2="224.1" stroke="#22C55E" stroke-width="1"/>
<rect x="572.3" y="203.3" width="7.7" height="6.2" fill="#22C55E"/>
<line x1="588.5" y1="159.0" x2="588.5" y2="177.5" stroke="#22C55E" stroke-width="1"/>
<rect x="584.7" y="166.1" width="7.7" height="11.4" fill="#22C55E"/>
<line x1="600.9" y1="162.9" x2="600.9" y2="179.9" stroke="#EF4444" stroke-width="1"/>
<rect x="597.1" y="167.8" width="7.7" height="11.3" fill="#EF4444"/>
<line x1="613.2" y1="172.8" x2="613.2" y2="212.1" stroke="#EF4444" stroke-width="1"/>
<rect x="609.4" y="175.1" width="7.7" height="31.6" fill="#EF4444"/>
<line x1="625.6" y1="179.2" x2="625.6" y2="192.2" stroke="#22C55E" stroke-width="1"/>
<rect x="621.8" y="182.4" width="7.7" height="4.0" fill="#22C55E"/>
<line x1="638.0" y1="173.5" x2="638.0" y2="194.7" stroke="#EF4444" stroke-width="1"/>
<rect x="634.1" y="182.4" width="7.7" height="8.4" fill="#EF4444"/>
<line x1="650.3" y1="205.5" x2="650.3" y2="228.7" stroke="#EF4444" stroke-width="1"/>
<rect x="646.5" y="223.0" width="7.7" height="1.0" fill="#EF4444"/>
<line x1="662.7" y1="204.4" x2="662.7" y2="232.0" stroke="#EF4444" stroke-width="1"/>
<rect x="658.8" y="221.7" width="7.7" height="3.8" fill="#EF4444"/>
<line x1="675.0" y1="207.1" x2="675.0" y2="236.0" stroke="#EF4444" stroke-width="1"/>
<rect x="671.2" y="211.4" width="7.7" height="14.4" fill="#EF4444"/>
<line x1="687.4" y1="215.0" x2="687.4" y2="244.9" stroke="#22C55E" stroke-width="1"/>
<rect x="683.5" y="226.8" width="7.7" height="12.5" fill="#22C55E"/>
<line x1="699.7" y1="199.4" x2="699.7" y2="228.3" stroke="#22C55E" stroke-width="1"/>
<rect x="695.9" y="200.6" width="7.7" height="14.7" fill="#22C55E"/>
<line x1="712.1" y1="180.1" x2="712.1" y2="201.3" stroke="#22C55E" stroke-width="1"/>
<rect x="708.3" y="182.8" width="7.7" height="17.6" fill="#22C55E"/>
<line x1="724.4" y1="176.0" x2="724.4" y2="197.8" stroke="#22C55E" stroke-width="1"/>
<rect x="720.6" y="187.6" width="7.7" height="1.3" fill="#22C55E"/>
<line x1="736.8" y1="170.2" x2="736.8" y2="204.5" stroke="#EF4444" stroke-width="1"/>
<rect x="733.0" y="184.0" width="7.7" height="3.6" fill="#EF4444"/>
<line x1="749.2" y1="167.0" x2="749.2" y2="182.3" stroke="#22C55E" stroke-width="1"/>
<rect x="745.3" y="171.2" width="7.7" height="9.2" fill="#22C55E"/>
<line x1="761.5" y1="171.6" x2="761.5" y2="189.0" stroke="#EF4444" stroke-width="1"/>
<rect x="757.7" y="177.5" width="7.7" height="3.9" fill="#EF4444"/>
<line x1="773.9" y1="186.0" x2="773.9" y2="206.2" stroke="#22C55E" stroke-width="1"/>
<rect x="770.0" y="187.8" width="7.7" height="1.9" fill="#22C55E"/>
<line x1="786.2" y1="168.4" x2="786.2" y2="188.1" stroke="#22C55E" stroke-width="1"/>
<rect x="782.4" y="169.3" width="7.7" height="15.8" fill="#22C55E"/>
<line x1="798.6" y1="158.4" x2="798.6" y2="180.1" stroke="#22C55E" stroke-width="1"/>
<rect x="794.7" y="159.7" width="7.7" height="8.4" fill="#22C55E"/>
<line x1="810.9" y1="162.8" x2="810.9" y2="180.6" stroke="#EF4444" stroke-width="1"/>
<rect x="807.1" y="168.2" width="7.7" height="9.7" fill="#EF4444"/>
<line x1="823.3" y1="165.2" x2="823.3" y2="178.6" stroke="#22C55E" stroke-width="1"/>
<rect x="819.5" y="169.4" width="7.7" height="2.1" fill="#22C55E"/>
<line x1="835.6" y1="157.9" x2="835.6" y2="174.4" stroke="#22C55E" stroke-width="1"/>
<rect x="831.8" y="160.6" width="7.7" height="1.0" fill="#22C55E"/>
<line x1="848.0" y1="161.1" x2="848.0" y2="181.3" stroke="#EF4444" stroke-width="1"/>
<rect x="844.2" y="164.8" width="7.7" height="7.6" fill="#EF4444"/>
<line x1="860.4" y1="183.0" x2="860.4" y2="203.4" stroke="#22C55E" stroke-width="1"/>
<rect x="856.5" y="195.4" width="7.7" height="3.1" fill="#22C55E"/>
<line x1="872.7" y1="178.6" x2="872.7" y2="200.6" stroke="#EF4444" stroke-width="1"/>
<rect x="868.9" y="185.8" width="7.7" height="13.9" fill="#EF4444"/>
<line x1="885.1" y1="177.9" x2="885.1" y2="192.3" stroke="#22C55E" stroke-width="1"/>
<rect x="881.2" y="179.8" width="7.7" height="5.8" fill="#22C55E"/>
<line x1="897.4" y1="174.7" x2="897.4" y2="186.9" stroke="#22C55E" stroke-width="1"/>
<rect x="893.6" y="182.9" width="7.7" height="1.0" fill="#22C55E"/>
<line x1="909.8" y1="197.7" x2="909.8" y2="220.1" stroke="#EF4444" stroke-width="1"/>
<rect x="905.9" y="207.3" width="7.7" height="3.0" fill="#EF4444"/>
<line x1="922.1" y1="194.4" x2="922.1" y2="213.9" stroke="#22C55E" stroke-width="1"/>
<rect x="918.3" y="209.2" width="7.7" height="1.7" fill="#22C55E"/>
<line x1="934.5" y1="188.5" x2="934.5" y2="218.1" stroke="#EF4444" stroke-width="1"/>
<rect x="930.7" y="193.4" width="7.7" height="15.5" fill="#EF4444"/>
<line x1="946.8" y1="197.1" x2="946.8" y2="218.0" stroke="#22C55E" stroke-width="1"/>
<rect x="943.0" y="204.1" width="7.7" height="10.1" fill="#22C55E"/>
<line x1="959.2" y1="197.5" x2="959.2" y2="238.9" stroke="#EF4444" stroke-width="1"/>
<rect x="955.4" y="207.4" width="7.7" height="30.9" fill="#EF4444"/>
<line x1="971.6" y1="198.1" x2="971.6" y2="221.6" stroke="#22C55E" stroke-width="1"/>
<rect x="967.7" y="201.5" width="7.7" height="14.3" fill="#22C55E"/>
<line x1="983.9" y1="178.9" x2="983.9" y2="212.9" stroke="#22C55E" stroke-width="1"/>
<rect x="980.1" y="185.7" width="7.7" height="8.4" fill="#22C55E"/>
<line x1="996.3" y1="149.2" x2="996.3" y2="181.1" stroke="#22C55E" stroke-width="1"/>
<rect x="992.4" y="152.1" width="7.7" height="29.0" fill="#22C55E"/>
<line x1="1008.6" y1="104.4" x2="1008.6" y2="143.5" stroke="#22C55E" stroke-width="1"/>
<rect x="1004.8" y="110.9" width="7.7" height="32.1" fill="#22C55E"/>
<line x1="1021.0" y1="93.6" x2="1021.0" y2="115.9" stroke="#EF4444" stroke-width="1"/>
<rect x="1017.1" y="100.3" width="7.7" height="14.6" fill="#EF4444"/>
<line x1="1033.3" y1="109.0" x2="1033.3" y2="122.6" stroke="#EF4444" stroke-width="1"/>
<rect x="1029.5" y="117.8" width="7.7" height="1.2" fill="#EF4444"/>
<line x1="1045.7" y1="102.9" x2="1045.7" y2="116.2" stroke="#22C55E" stroke-width="1"/>
<rect x="1041.9" y="104.5" width="7.7" height="6.8" fill="#22C55E"/>
<line x1="1058.0" y1="99.6" x2="1058.0" y2="108.9" stroke="#22C55E" stroke-width="1"/>
<rect x="1054.2" y="105.9" width="7.7" height="1.0" fill="#22C55E"/>
<line x1="1070.4" y1="101.5" x2="1070.4" y2="116.8" stroke="#EF4444" stroke-width="1"/>
<rect x="1066.6" y="101.5" width="7.7" height="11.9" fill="#EF4444"/>
<line x1="1082.8" y1="102.0" x2="1082.8" y2="110.5" stroke="#EF4444" stroke-width="1"/>
<rect x="1078.9" y="102.2" width="7.7" height="5.1" fill="#EF4444"/>
<line x1="1095.1" y1="86.6" x2="1095.1" y2="102.9" stroke="#22C55E" stroke-width="1"/>
<rect x="1091.3" y="92.0" width="7.7" height="10.8" fill="#22C55E"/>
<line x1="1107.5" y1="88.7" x2="1107.5" y2="98.9" stroke="#EF4444" stroke-width="1"/>
<rect x="1103.6" y="89.7" width="7.7" height="6.3" fill="#EF4444"/>
<line x1="1119.8" y1="94.5" x2="1119.8" y2="106.3" stroke="#EF4444" stroke-width="1"/>
<rect x="1116.0" y="94.5" width="7.7" height="9.9" fill="#EF4444"/>
<polyline points="20.2,419.8 32.5,419.2 44.9,418.6 57.2,417.5 69.6,416.0 82.0,414.4 94.3,412.4 106.7,410.5 119.0,408.7 131.4,406.7 143.7,404.9 156.1,402.9 168.4,400.9 180.8,399.0 193.2,397.2 205.5,395.1 217.9,392.7 230.2,390.6 242.6,388.3 254.9,385.5 267.3,382.8 279.6,379.9 292.0,376.9 304.4,374.2 316.7,371.3 329.1,368.0 341.4,365.2 353.8,362.5 366.1,360.1 378.5,357.5 390.8,354.9 403.2,351.9 415.6,348.9 427.9,345.9 440.3,342.8 452.6,339.6 465.0,336.3 477.3,333.1 489.7,330.0 502.0,327.1 514.4,324.9 526.8,322.7 539.1,321.0 551.5,319.5 563.8,318.0 576.2,316.1 588.5,313.5 600.9,311.0 613.2,308.9 625.6,306.7 638.0,304.6 650.3,303.1 662.7,301.6 675.0,300.2 687.4,298.9 699.7,297.5 712.1,295.6 724.4,293.7 736.8,291.8 749.2,289.8 761.5,287.8 773.9,286.2 786.2,284.3 798.6,282.3 810.9,280.4 823.3,278.5 835.6,276.5 848.0,274.7 860.4,273.3 872.7,271.8 885.1,270.3 897.4,268.7 909.8,267.6 922.1,266.5 934.5,265.4 946.8,264.4 959.2,263.6 971.6,262.7 983.9,261.5 996.3,259.8 1008.6,257.4 1021.0,254.7 1033.3,252.3 1045.7,249.8 1058.0,247.3 1070.4,244.8 1082.8,242.4 1095.1,239.8 1107.5,237.3 1119.8,234.9" fill="none" stroke="#7DD3FC" stroke-width="2.4" stroke-opacity="0.95" stroke-linejoin="round"/>
<polyline points="20.2,437.0 32.5,433.5 44.9,430.1 57.2,424.8 69.6,418.7 82.0,412.3 94.3,404.6 106.7,397.7 119.0,391.4 131.4,385.0 143.7,379.5 156.1,373.5 168.4,367.4 180.8,362.4 193.2,357.8 205.5,352.6 217.9,346.2 230.2,341.0 242.6,335.3 254.9,328.3 267.3,321.4 279.6,314.4 292.0,307.3 304.4,301.4 316.7,295.0 329.1,287.6 341.4,282.0 353.8,277.4 366.1,273.7 378.5,269.6 390.8,265.2 403.2,259.9 415.6,254.2 427.9,249.0 440.3,243.6 452.6,237.8 465.0,232.2 477.3,226.7 489.7,222.0 502.0,218.2 514.4,216.7 526.8,215.8" fill="none" stroke="#3B82F6" stroke-width="2.2" stroke-opacity="1.0" stroke-linejoin="round"/><polyline points="526.8,215.8 539.1,216.4 551.5,217.6 563.8,218.6" fill="none" stroke="#FBBF24" stroke-width="2.2" stroke-opacity="1.0" stroke-linejoin="round"/><polyline points="563.8,218.6 576.2,218.0 588.5,214.6 600.9,211.6 613.2,210.3 625.6,208.7 638.0,207.0" fill="none" stroke="#3B82F6" stroke-width="2.2" stroke-opacity="1.0" stroke-linejoin="round"/><polyline points="638.0,207.0 650.3,207.7 662.7,208.4 675.0,209.3 687.4,210.7 699.7,210.9" fill="none" stroke="#FBBF24" stroke-width="2.2" stroke-opacity="1.0" stroke-linejoin="round"/><polyline points="699.7,210.9 712.1,209.5 724.4,208.0 736.8,206.6 749.2,204.4 761.5,202.8 773.9,202.3 786.2,200.7 798.6,198.5 810.9,196.7 823.3,195.0 835.6,193.0 848.0,191.5" fill="none" stroke="#3B82F6" stroke-width="2.2" stroke-opacity="1.0" stroke-linejoin="round"/><polyline points="848.0,191.5 860.4,191.7" fill="none" stroke="#FBBF24" stroke-width="2.2" stroke-opacity="1.0" stroke-linejoin="round"/><polyline points="860.4,191.7 872.7,191.5 885.1,191.1 897.4,190.4" fill="none" stroke="#3B82F6" stroke-width="2.2" stroke-opacity="1.0" stroke-linejoin="round"/><polyline points="897.4,190.4 909.8,191.6 922.1,192.5 934.5,193.2 946.8,194.2 959.2,195.8 971.6,196.8" fill="none" stroke="#FBBF24" stroke-width="2.2" stroke-opacity="1.0" stroke-linejoin="round"/><polyline points="971.6,196.8 983.9,196.7 996.3,194.6 1008.6,189.8 1021.0,184.0 1033.3,179.3 1045.7,174.5 1058.0,169.7 1070.4,165.6 1082.8,161.6 1095.1,157.0 1107.5,152.7 1119.8,149.1" fill="none" stroke="#3B82F6" stroke-width="2.2" stroke-opacity="1.0" stroke-linejoin="round"/>
<polygon points="551.5,258.5 547.5,266.5 555.5,266.5" fill="#A3E635" fill-opacity="0.95"/>
<polygon points="959.2,243.9 955.2,251.9 963.2,251.9" fill="#A3E635" fill-opacity="0.95"/>
<line x1="959.2" y1="252.9" x2="959.2" y2="472.0" stroke="#FDE047" stroke-width="1" stroke-dasharray="3 3" stroke-opacity="0.8"/>
<rect x="797.2" y="476.0" width="324" height="20" rx="4" fill="#0A0F14" fill-opacity="0.92" stroke="#FDE047" stroke-opacity="0.7"/>
<text x="959.2" y="490.0" font-size="10" fill="#FDE047" text-anchor="middle">Jul 29 - zone hit; +5.6% in 5 sessions, +6.6% by Aug 13</text>
<text x="14" y="24" font-size="14" font-weight="bold" fill="#E6EEF7">SPX &#183; daily &#183; Kalman-Keltner chart study &#8212; replicated from the production Python engine</text>
<text x="14" y="41" font-size="10" fill="#7C8B9A">Real daily bars through 2026-08-17 &#183; illustrative parameters, not the tuned production values &#183; 752 bars computed, last 90 shown</text>
<line x1="14" y1="556" x2="30" y2="556" stroke="#3B82F6" stroke-width="2.4"/>
<text x="35" y="560" font-size="9.5" fill="#7C8B9A">centerline rising</text>
<line x1="125.0" y1="556" x2="141.0" y2="556" stroke="#FBBF24" stroke-width="2.4"/>
<text x="146.0" y="560" font-size="9.5" fill="#7C8B9A">centerline falling</text>
<line x1="241.0" y1="556" x2="257.0" y2="556" stroke="#7DD3FC" stroke-width="2.4"/>
<text x="262.0" y="560" font-size="9.5" fill="#7C8B9A">drift rising (weekly estimate)</text>
<line x1="417.0" y1="556" x2="433.0" y2="556" stroke="#D9A521" stroke-width="2.4"/>
<text x="438.0" y="560" font-size="9.5" fill="#7C8B9A">drift falling</text>
<line x1="508.0" y1="556" x2="524.0" y2="556" stroke="#22C55E" stroke-width="2.4"/>
<text x="529.0" y="560" font-size="9.5" fill="#7C8B9A">inner bands &#183; bullish</text>
<line x1="639.0" y1="556" x2="655.0" y2="556" stroke="#EF4444" stroke-width="2.4"/>
<text x="660.0" y="560" font-size="9.5" fill="#7C8B9A">inner bands &#183; bearish</text>
<line x1="770.0" y1="556" x2="786.0" y2="556" stroke="#5B6B7A" stroke-width="2.4"/>
<text x="791.0" y="560" font-size="9.5" fill="#7C8B9A">outer bands</text>
<polygon points="857.0,551 853.0,559 861.0,559" fill="#FDE047"/>
<text x="867.0" y="560" font-size="9.5" fill="#7C8B9A">zone hit (0 outer, 2 inter)</text>
</svg>
