<svg viewBox="0 0 1200 600" xmlns="http://www.w3.org/2000/svg" role="img" font-family="Segoe UI, Arial, Helvetica, sans-serif">
<title>AAPL daily Kalman-Keltner chart study</title>
<desc>A candlestick chart of AAPL daily bars overlaid with the Kalman-Keltner study: a fast centerline coloured blue while rising and yellow while falling, a slower drift line in light blue and gold, inner Keltner bands coloured green in bullish drift and red in bearish drift, and neutral outer bands. Markers show bars where the zone score fired. Generated by the production Python engine with illustrative parameters.</desc>
<rect x="0" y="0" width="1200" height="600" fill="#05080B"/>
<rect x="14" y="62" width="1112" height="460" fill="#080C10"/>
<line x1="14" y1="445.3" x2="1126" y2="445.3" stroke="#1B242C"/>
<text x="1132" y="448.3" font-size="10" fill="#7C8B9A">256</text>
<line x1="14" y1="368.7" x2="1126" y2="368.7" stroke="#1B242C"/>
<text x="1132" y="371.7" font-size="10" fill="#7C8B9A">275</text>
<line x1="14" y1="292.0" x2="1126" y2="292.0" stroke="#1B242C"/>
<text x="1132" y="295.0" font-size="10" fill="#7C8B9A">294</text>
<line x1="14" y1="215.3" x2="1126" y2="215.3" stroke="#1B242C"/>
<text x="1132" y="218.3" font-size="10" fill="#7C8B9A">313</text>
<line x1="14" y1="138.7" x2="1126" y2="138.7" stroke="#1B242C"/>
<text x="1132" y="141.7" font-size="10" fill="#7C8B9A">332</text>
<line x1="129.5" y1="62" x2="129.5" y2="522" stroke="#1B242C" stroke-opacity="0.7"/>
<text x="129.5" y="538" font-size="10" fill="#7C8B9A" text-anchor="middle">Mar</text>
<line x1="317.7" y1="62" x2="317.7" y2="522" stroke="#1B242C" stroke-opacity="0.7"/>
<text x="317.7" y="538" font-size="10" fill="#7C8B9A" text-anchor="middle">Apr</text>
<line x1="497.3" y1="62" x2="497.3" y2="522" stroke="#1B242C" stroke-opacity="0.7"/>
<text x="497.3" y="538" font-size="10" fill="#7C8B9A" text-anchor="middle">May</text>
<line x1="668.4" y1="62" x2="668.4" y2="522" stroke="#1B242C" stroke-opacity="0.7"/>
<text x="668.4" y="538" font-size="10" fill="#7C8B9A" text-anchor="middle">Jun</text>
<line x1="848.0" y1="62" x2="848.0" y2="522" stroke="#1B242C" stroke-opacity="0.7"/>
<text x="848.0" y="538" font-size="10" fill="#7C8B9A" text-anchor="middle">Jul</text>
<line x1="1036.2" y1="62" x2="1036.2" y2="522" stroke="#1B242C" stroke-opacity="0.7"/>
<text x="1036.2" y="538" font-size="10" fill="#7C8B9A" text-anchor="middle">Aug</text>
<polyline points="18.3,361.9 26.8,358.3 35.4,353.9 43.9,355.8 52.5,355.4 61.0,356.5 69.6,358.2 78.2,359.2 86.7,358.9 95.3,356.2 103.8,355.2 112.4,353.5 120.9,351.6 129.5,352.6 138.0,354.0 146.6,355.3 155.1,357.6 163.7,360.2 172.2,361.8 180.8,363.4 189.4,365.8 197.9,367.7 206.5,370.3 215.0,374.1 223.6,377.7 232.1,380.3 240.7,383.9 249.2,388.4 257.8,389.9 266.3,391.9 274.9,394.2 283.4,395.0 292.0,395.9 300.6,398.6 309.1,398.8 317.7,400.4 326.2,401.2 334.8,400.1 343.3,398.5 351.9,397.8 360.4,397.5 369.0,397.4 377.5,397.7 386.1,397.3 394.6,394.6 403.2,392.6 411.8,388.1 420.3,385.1 428.9,381.7 437.4,378.2 446.0,375.4 454.5,373.6 463.1,372.4 471.6,370.2 480.2,369.3 488.7,366.1 497.3,356.9 505.8,353.7 514.4,349.0 523.0,344.0 531.5,338.3 540.1,331.7 548.6,327.1 557.2,322.8 565.7,315.9 574.3,310.2 582.8,303.7 591.4,298.6 599.9,294.4 608.5,289.6 617.0,284.4 625.6,277.4 634.2,271.4 642.7,265.3 651.3,260.2 659.8,254.3 668.4,249.3 676.9,242.9 685.5,236.9 694.0,233.3 702.6,228.4 711.1,221.0 719.7,219.3 728.2,221.1 736.8,222.1 745.4,223.0 753.9,223.8 762.5,223.9 771.0,223.2 779.6,223.8 788.1,223.6 796.7,223.1 805.2,223.5 813.8,222.8 822.3,225.6 830.9,228.3 839.4,230.2 848.0,230.6 856.6,225.1 865.1,221.0 873.7,217.2 882.2,213.3 890.8,209.0 899.3,205.9 907.9,200.2 916.4,197.6 925.0,189.2 933.5,181.6 942.1,175.0 950.6,168.1 959.2,163.6 967.8,159.9 976.3,157.5 984.9,151.0 993.4,144.9 1002.0,138.2 1010.5,131.6 1019.1,127.3 1027.6,120.6 1036.2,123.6 1044.7,126.7 1053.3,130.1 1061.8,131.8 1070.4,134.5 1079.0,137.0 1087.5,140.0 1096.1,144.5 1104.6,149.0 1113.2,152.9 1121.7,156.2" fill="none" stroke="#5B6B7A" stroke-width="1.2" stroke-opacity="0.9"/>
<polyline points="18.3,452.9 26.8,450.1 35.4,453.7 43.9,456.2 52.5,459.5 61.0,459.0 69.6,459.2 78.2,460.5 86.7,460.1 95.3,459.4 103.8,456.4 112.4,454.0 120.9,455.2 129.5,456.2 138.0,456.8 146.6,456.9 155.1,458.4 163.7,460.8 172.2,463.4 180.8,464.5 189.4,463.9 197.9,466.2 206.5,469.5 215.0,471.6 223.6,472.7 232.1,475.4 240.7,478.0 249.2,480.4 257.8,482.6 266.3,484.3 274.9,484.7 283.4,486.1 292.0,488.5 300.6,490.9 309.1,493.7 317.7,492.9 326.2,493.6 334.8,492.9 343.3,497.4 351.9,496.8 360.4,495.7 369.0,493.3 377.5,491.9 386.1,490.6 394.6,490.4 403.2,488.4 411.8,486.4 420.3,481.7 428.9,479.7 437.4,477.5 446.0,473.1 454.5,469.5 463.1,468.3 471.6,465.9 480.2,463.5 488.7,462.0 497.3,460.9 505.8,457.2 514.4,453.9 523.0,449.3 531.5,443.6 540.1,437.7 548.6,430.8 557.2,423.4 565.7,417.5 574.3,410.9 582.8,404.8 591.4,399.4 599.9,393.5 608.5,387.6 617.0,381.6 625.6,375.0 634.2,367.6 642.7,360.7 651.3,353.4 659.8,347.3 668.4,343.4 676.9,339.7 685.5,335.4 694.0,330.1 702.6,326.9 711.1,327.8 719.7,331.9 728.2,334.1 736.8,335.5 745.4,336.8 753.9,337.4 762.5,337.1 771.0,337.1 779.6,335.9 788.1,334.7 796.7,334.8 805.2,335.1 813.8,344.6 822.3,350.8 830.9,354.2 839.4,357.3 848.0,357.4 856.6,358.4 865.1,353.5 873.7,347.4 882.2,343.3 890.8,339.4 899.3,333.6 907.9,328.1 916.4,323.5 925.0,320.1 933.5,312.4 942.1,304.2 950.6,299.0 959.2,293.9 967.8,288.4 976.3,284.9 984.9,282.3 993.4,275.0 1002.0,267.8 1010.5,260.5 1019.1,256.8 1027.6,270.9 1036.2,273.8 1044.7,276.9 1053.3,277.7 1061.8,277.7 1070.4,276.5 1079.0,279.0 1087.5,280.7 1096.1,282.3 1104.6,283.1 1113.2,283.0 1121.7,283.6" fill="none" stroke="#5B6B7A" stroke-width="1.2" stroke-opacity="0.9"/>
<polyline points="18.3,384.6 26.8,381.2 35.4,378.8 43.9,380.9 52.5,381.4 61.0,382.1 69.6,383.5 78.2,384.5 86.7,384.2 95.3,382.0 103.8,380.5 112.4,378.7 120.9,377.5 129.5,378.5 138.0,379.7 146.6,380.7 155.1,382.8 163.7,385.4 172.2,387.2 180.8,388.7 189.4,390.4 197.9,392.3 206.5,395.1" fill="none" stroke="#22C55E" stroke-width="1.5" stroke-opacity="0.95"/><polyline points="206.5,395.1 215.0,398.5 223.6,401.4 232.1,404.0 240.7,407.4 249.2,411.4 257.8,413.1 266.3,415.0 274.9,416.8 283.4,417.8 292.0,419.1 300.6,421.6 309.1,422.5 317.7,423.5 326.2,424.3 334.8,423.3 343.3,423.2 351.9,422.5 360.4,422.0 369.0,421.4 377.5,421.3 386.1,420.6 394.6,418.5 403.2,416.6" fill="none" stroke="#EF4444" stroke-width="1.5" stroke-opacity="0.95"/><polyline points="403.2,416.6 411.8,412.7 420.3,409.2 428.9,406.2 437.4,403.0 446.0,399.8 454.5,397.6 463.1,396.4 471.6,394.1 480.2,392.9 488.7,390.1 497.3,382.9 505.8,379.6 514.4,375.3 523.0,370.3 531.5,364.7 540.1,358.2 548.6,353.0 557.2,347.9 565.7,341.3 574.3,335.4 582.8,329.0 591.4,323.8 599.9,319.2 608.5,314.1 617.0,308.7 625.6,301.8 634.2,295.5 642.7,289.2 651.3,283.5 659.8,277.5 668.4,272.8 676.9,267.1 685.5,261.5 694.0,257.5 702.6,253.1 711.1,247.7 719.7,247.4 728.2,249.3 736.8,250.4 745.4,251.4 753.9,252.2 762.5,252.2 771.0,251.7 779.6,251.8 788.1,251.4 796.7,251.1 805.2,251.4 813.8,253.3 822.3,256.9 830.9,259.8 839.4,261.9 848.0,262.3 856.6,258.4 865.1,254.1 873.7,249.8 882.2,245.8 890.8,241.6 899.3,237.8 907.9,232.2 916.4,229.1 925.0,221.9 933.5,214.3 942.1,207.3 950.6,200.8 959.2,196.1 967.8,192.0 976.3,189.4 984.9,183.8 993.4,177.4 1002.0,170.6 1010.5,163.8 1019.1,159.7 1027.6,158.2 1036.2,161.1 1044.7,164.3 1053.3,167.0 1061.8,168.3 1070.4,170.0 1079.0,172.5 1087.5,175.2 1096.1,179.0 1104.6,182.5 1113.2,185.4 1121.7,188.1" fill="none" stroke="#22C55E" stroke-width="1.5" stroke-opacity="0.95"/>
<polyline points="18.3,430.1 26.8,427.1 35.4,428.8 43.9,431.1 52.5,433.5 61.0,433.4 69.6,433.9 78.2,435.1 86.7,434.8 95.3,433.6 103.8,431.1 112.4,428.9 120.9,429.3 129.5,430.3 138.0,431.1 146.6,431.5 155.1,433.2 163.7,435.6 172.2,438.0 180.8,439.2 189.4,439.4 197.9,441.6 206.5,444.7" fill="none" stroke="#22C55E" stroke-width="1.5" stroke-opacity="0.95"/><polyline points="206.5,444.7 215.0,447.2 223.6,448.9 232.1,451.6 240.7,454.4 249.2,457.4 257.8,459.4 266.3,461.2 274.9,462.1 283.4,463.3 292.0,465.3 300.6,467.8 309.1,469.9 317.7,469.7 326.2,470.5 334.8,469.7 343.3,472.6 351.9,472.0 360.4,471.1 369.0,469.3 377.5,468.3 386.1,467.3 394.6,466.4 403.2,464.5" fill="none" stroke="#EF4444" stroke-width="1.5" stroke-opacity="0.95"/><polyline points="403.2,464.5 411.8,461.8 420.3,457.6 428.9,455.2 437.4,452.7 446.0,448.7 454.5,445.5 463.1,444.3 471.6,442.0 480.2,440.0 488.7,438.0 497.3,434.9 505.8,431.3 514.4,427.7 523.0,423.0 531.5,417.3 540.1,411.2 548.6,404.9 557.2,398.2 565.7,392.1 574.3,385.7 582.8,379.6 591.4,374.2 599.9,368.7 608.5,363.1 617.0,357.3 625.6,350.6 634.2,343.5 642.7,336.8 651.3,330.1 659.8,324.0 668.4,319.9 676.9,315.5 685.5,310.8 694.0,305.9 702.6,302.3 711.1,301.1 719.7,303.8 728.2,305.8 736.8,307.2 745.4,308.4 753.9,309.0 762.5,308.8 771.0,308.6 779.6,307.9 788.1,307.0 796.7,306.9 805.2,307.2 813.8,314.2 822.3,319.5 830.9,322.7 839.4,325.5 848.0,325.7 856.6,325.1 865.1,320.3 873.7,314.9 882.2,310.8 890.8,306.8 899.3,301.7 907.9,296.2 916.4,292.0 925.0,287.4 933.5,279.7 942.1,271.9 950.6,266.3 959.2,261.3 967.8,256.2 976.3,253.0 984.9,249.5 993.4,242.5 1002.0,235.4 1010.5,228.3 1019.1,224.4 1027.6,233.3 1036.2,236.3 1044.7,239.3 1053.3,240.8 1061.8,241.2 1070.4,241.0 1079.0,243.5 1087.5,245.5 1096.1,247.9 1104.6,249.6 1113.2,250.5 1121.7,251.7" fill="none" stroke="#22C55E" stroke-width="1.5" stroke-opacity="0.95"/>
<line x1="18.3" y1="368.4" x2="18.3" y2="378.3" stroke="#EF4444" stroke-width="1"/>
<rect x="15.6" y="370.4" width="5.3" height="4.9" fill="#EF4444"/>
<line x1="26.8" y1="348.8" x2="26.8" y2="372.2" stroke="#22C55E" stroke-width="1"/>
<rect x="24.2" y="367.9" width="5.3" height="3.3" fill="#22C55E"/>
<line x1="35.4" y1="367.0" x2="35.4" y2="430.3" stroke="#EF4444" stroke-width="1"/>
<rect x="32.7" y="367.5" width="5.3" height="56.4" fill="#EF4444"/>
<line x1="43.9" y1="421.9" x2="43.9" y2="449.5" stroke="#EF4444" stroke-width="1"/>
<rect x="41.3" y="422.8" width="5.3" height="25.4" fill="#EF4444"/>
<line x1="52.5" y1="405.4" x2="52.5" y2="449.2" stroke="#22C55E" stroke-width="1"/>
<rect x="49.8" y="415.2" width="5.3" height="23.7" fill="#22C55E"/>
<line x1="61.0" y1="403.2" x2="61.0" y2="421.0" stroke="#22C55E" stroke-width="1"/>
<rect x="58.4" y="413.3" width="5.3" height="3.1" fill="#22C55E"/>
<line x1="69.6" y1="412.8" x2="69.6" y2="430.8" stroke="#EF4444" stroke-width="1"/>
<rect x="66.9" y="420.4" width="5.3" height="8.2" fill="#EF4444"/>
<line x1="78.2" y1="411.7" x2="78.2" y2="438.5" stroke="#22C55E" stroke-width="1"/>
<rect x="75.5" y="412.3" width="5.3" height="22.8" fill="#22C55E"/>
<line x1="86.7" y1="392.6" x2="86.7" y2="417.2" stroke="#22C55E" stroke-width="1"/>
<rect x="84.1" y="405.8" width="5.3" height="11.0" fill="#22C55E"/>
<line x1="95.3" y1="370.4" x2="95.3" y2="399.6" stroke="#22C55E" stroke-width="1"/>
<rect x="92.6" y="381.6" width="5.3" height="17.4" fill="#22C55E"/>
<line x1="103.8" y1="370.2" x2="103.8" y2="386.0" stroke="#22C55E" stroke-width="1"/>
<rect x="101.2" y="373.1" width="5.3" height="10.0" fill="#22C55E"/>
<line x1="112.4" y1="365.4" x2="112.4" y2="387.0" stroke="#EF4444" stroke-width="1"/>
<rect x="109.7" y="370.1" width="5.3" height="8.1" fill="#EF4444"/>
<line x1="120.9" y1="378.8" x2="120.9" y2="419.2" stroke="#EF4444" stroke-width="1"/>
<rect x="118.3" y="378.8" width="5.3" height="35.1" fill="#EF4444"/>
<line x1="129.5" y1="404.4" x2="129.5" y2="430.2" stroke="#22C55E" stroke-width="1"/>
<rect x="126.8" y="411.8" width="5.3" height="9.4" fill="#22C55E"/>
<line x1="138.0" y1="408.4" x2="138.0" y2="430.5" stroke="#22C55E" stroke-width="1"/>
<rect x="135.4" y="415.7" width="5.3" height="1.1" fill="#22C55E"/>
<line x1="146.6" y1="406.0" x2="146.6" y2="425.2" stroke="#EF4444" stroke-width="1"/>
<rect x="143.9" y="412.1" width="5.3" height="8.7" fill="#EF4444"/>
<line x1="155.1" y1="424.6" x2="155.1" y2="442.2" stroke="#EF4444" stroke-width="1"/>
<rect x="152.5" y="427.8" width="5.3" height="2.0" fill="#EF4444"/>
<line x1="163.7" y1="436.0" x2="163.7" y2="453.9" stroke="#EF4444" stroke-width="1"/>
<rect x="161.0" y="436.6" width="5.3" height="4.8" fill="#EF4444"/>
<line x1="172.2" y1="426.3" x2="172.2" y2="456.7" stroke="#22C55E" stroke-width="1"/>
<rect x="169.6" y="431.5" width="5.3" height="17.1" fill="#22C55E"/>
<line x1="180.8" y1="420.9" x2="180.8" y2="443.4" stroke="#22C55E" stroke-width="1"/>
<rect x="178.1" y="427.6" width="5.3" height="12.9" fill="#22C55E"/>
<line x1="189.4" y1="422.3" x2="189.4" y2="432.8" stroke="#EF4444" stroke-width="1"/>
<rect x="186.7" y="426.6" width="5.3" height="1.1" fill="#EF4444"/>
<line x1="197.9" y1="435.3" x2="197.9" y2="454.7" stroke="#EF4444" stroke-width="1"/>
<rect x="195.3" y="436.5" width="5.3" height="11.8" fill="#EF4444"/>
<line x1="206.5" y1="445.9" x2="206.5" y2="473.7" stroke="#EF4444" stroke-width="1"/>
<rect x="203.8" y="449.4" width="5.3" height="21.8" fill="#EF4444"/>
<line x1="215.0" y1="455.9" x2="215.0" y2="472.2" stroke="#22C55E" stroke-width="1"/>
<rect x="212.4" y="460.2" width="5.3" height="2.9" fill="#22C55E"/>
<line x1="223.6" y1="450.8" x2="223.6" y2="462.8" stroke="#22C55E" stroke-width="1"/>
<rect x="220.9" y="454.5" width="5.3" height="5.2" fill="#22C55E"/>
<line x1="232.1" y1="451.6" x2="232.1" y2="475.8" stroke="#EF4444" stroke-width="1"/>
<rect x="229.5" y="461.0" width="5.3" height="11.0" fill="#EF4444"/>
<line x1="240.7" y1="464.3" x2="240.7" y2="482.7" stroke="#EF4444" stroke-width="1"/>
<rect x="238.0" y="474.2" width="5.3" height="1.8" fill="#EF4444"/>
<line x1="249.2" y1="475.0" x2="249.2" y2="488.0" stroke="#22C55E" stroke-width="1"/>
<rect x="246.6" y="479.9" width="5.3" height="1.0" fill="#22C55E"/>
<line x1="257.8" y1="453.0" x2="257.8" y2="470.6" stroke="#EF4444" stroke-width="1"/>
<rect x="255.1" y="455.6" width="5.3" height="10.1" fill="#EF4444"/>
<line x1="266.3" y1="452.0" x2="266.3" y2="473.5" stroke="#22C55E" stroke-width="1"/>
<rect x="263.7" y="465.0" width="5.3" height="5.3" fill="#22C55E"/>
<line x1="274.9" y1="451.4" x2="274.9" y2="465.2" stroke="#EF4444" stroke-width="1"/>
<rect x="272.2" y="455.0" width="5.3" height="6.0" fill="#EF4444"/>
<line x1="283.4" y1="443.2" x2="283.4" y2="468.6" stroke="#22C55E" stroke-width="1"/>
<rect x="280.8" y="459.9" width="5.3" height="3.1" fill="#22C55E"/>
<line x1="292.0" y1="449.4" x2="292.0" y2="479.6" stroke="#EF4444" stroke-width="1"/>
<rect x="289.3" y="455.8" width="5.3" height="20.8" fill="#EF4444"/>
<line x1="300.6" y1="468.2" x2="300.6" y2="490.0" stroke="#EF4444" stroke-width="1"/>
<rect x="297.9" y="471.4" width="5.3" height="14.0" fill="#EF4444"/>
<line x1="309.1" y1="449.4" x2="309.1" y2="483.5" stroke="#22C55E" stroke-width="1"/>
<rect x="306.5" y="456.3" width="5.3" height="23.9" fill="#22C55E"/>
<line x1="317.7" y1="446.6" x2="317.7" y2="458.2" stroke="#22C55E" stroke-width="1"/>
<rect x="315.0" y="448.8" width="5.3" height="6.3" fill="#22C55E"/>
<line x1="326.2" y1="446.8" x2="326.2" y2="469.1" stroke="#22C55E" stroke-width="1"/>
<rect x="323.6" y="447.6" width="5.3" height="7.0" fill="#22C55E"/>
<line x1="334.8" y1="422.2" x2="334.8" y2="445.4" stroke="#22C55E" stroke-width="1"/>
<rect x="332.1" y="435.6" width="5.3" height="9.6" fill="#22C55E"/>
<line x1="343.3" y1="446.5" x2="343.3" y2="489.2" stroke="#EF4444" stroke-width="1"/>
<rect x="340.7" y="446.6" width="5.3" height="10.8" fill="#EF4444"/>
<line x1="351.9" y1="432.0" x2="351.9" y2="445.1" stroke="#22C55E" stroke-width="1"/>
<rect x="349.2" y="435.5" width="5.3" height="1.8" fill="#22C55E"/>
<line x1="360.4" y1="426.4" x2="360.4" y2="447.0" stroke="#22C55E" stroke-width="1"/>
<rect x="357.8" y="429.0" width="5.3" height="6.1" fill="#22C55E"/>
<line x1="369.0" y1="422.1" x2="369.0" y2="435.0" stroke="#22C55E" stroke-width="1"/>
<rect x="366.3" y="429.0" width="5.3" height="2.0" fill="#22C55E"/>
<line x1="377.5" y1="430.3" x2="377.5" y2="444.6" stroke="#EF4444" stroke-width="1"/>
<rect x="374.9" y="432.1" width="5.3" height="2.2" fill="#EF4444"/>
<line x1="386.1" y1="423.1" x2="386.1" y2="442.4" stroke="#EF4444" stroke-width="1"/>
<rect x="383.4" y="434.1" width="5.3" height="1.7" fill="#EF4444"/>
<line x1="394.6" y1="404.3" x2="394.6" y2="439.9" stroke="#22C55E" stroke-width="1"/>
<rect x="392.0" y="404.8" width="5.3" height="33.7" fill="#22C55E"/>
<line x1="403.2" y1="401.8" x2="403.2" y2="425.8" stroke="#EF4444" stroke-width="1"/>
<rect x="400.5" y="403.3" width="5.3" height="13.8" fill="#EF4444"/>
<line x1="411.8" y1="380.9" x2="411.8" y2="403.6" stroke="#22C55E" stroke-width="1"/>
<rect x="409.1" y="389.3" width="5.3" height="13.3" fill="#22C55E"/>
<line x1="420.3" y1="372.9" x2="420.3" y2="389.1" stroke="#22C55E" stroke-width="1"/>
<rect x="417.7" y="377.9" width="5.3" height="11.1" fill="#22C55E"/>
<line x1="428.9" y1="378.9" x2="428.9" y2="409.0" stroke="#EF4444" stroke-width="1"/>
<rect x="426.2" y="384.2" width="5.3" height="21.7" fill="#EF4444"/>
<line x1="437.4" y1="375.1" x2="437.4" y2="403.0" stroke="#22C55E" stroke-width="1"/>
<rect x="434.8" y="377.4" width="5.3" height="21.8" fill="#22C55E"/>
<line x1="446.0" y1="366.8" x2="446.0" y2="383.6" stroke="#EF4444" stroke-width="1"/>
<rect x="443.3" y="369.7" width="5.3" height="6.6" fill="#EF4444"/>
<line x1="454.5" y1="377.8" x2="454.5" y2="391.7" stroke="#EF4444" stroke-width="1"/>
<rect x="451.9" y="379.0" width="5.3" height="6.9" fill="#EF4444"/>
<line x1="463.1" y1="397.0" x2="463.1" y2="410.4" stroke="#22C55E" stroke-width="1"/>
<rect x="460.4" y="400.0" width="5.3" height="6.2" fill="#22C55E"/>
<line x1="471.6" y1="377.1" x2="471.6" y2="395.7" stroke="#EF4444" stroke-width="1"/>
<rect x="469.0" y="380.8" width="5.3" height="6.6" fill="#EF4444"/>
<line x1="480.2" y1="386.0" x2="480.2" y2="402.3" stroke="#22C55E" stroke-width="1"/>
<rect x="477.5" y="389.6" width="5.3" height="10.7" fill="#22C55E"/>
<line x1="488.7" y1="365.8" x2="488.7" y2="397.9" stroke="#22C55E" stroke-width="1"/>
<rect x="486.1" y="384.8" width="5.3" height="3.5" fill="#22C55E"/>
<line x1="497.3" y1="320.2" x2="497.3" y2="356.2" stroke="#22C55E" stroke-width="1"/>
<rect x="494.6" y="349.0" width="5.3" height="5.2" fill="#22C55E"/>
<line x1="505.8" y1="347.0" x2="505.8" y2="370.5" stroke="#EF4444" stroke-width="1"/>
<rect x="503.2" y="350.9" width="5.3" height="11.5" fill="#EF4444"/>
<line x1="514.4" y1="331.0" x2="514.4" y2="363.8" stroke="#22C55E" stroke-width="1"/>
<rect x="511.7" y="332.5" width="5.3" height="29.5" fill="#22C55E"/>
<line x1="523.0" y1="316.9" x2="523.0" y2="345.2" stroke="#22C55E" stroke-width="1"/>
<rect x="520.3" y="319.0" width="5.3" height="22.8" fill="#22C55E"/>
<line x1="531.5" y1="300.2" x2="531.5" y2="326.0" stroke="#EF4444" stroke-width="1"/>
<rect x="528.9" y="311.8" width="5.3" height="7.5" fill="#EF4444"/>
<line x1="540.1" y1="289.5" x2="540.1" y2="308.8" stroke="#22C55E" stroke-width="1"/>
<rect x="537.4" y="295.3" width="5.3" height="13.5" fill="#22C55E"/>
<line x1="548.6" y1="293.0" x2="548.6" y2="307.9" stroke="#22C55E" stroke-width="1"/>
<rect x="546.0" y="297.9" width="5.3" height="2.9" fill="#22C55E"/>
<line x1="557.2" y1="287.4" x2="557.2" y2="298.4" stroke="#22C55E" stroke-width="1"/>
<rect x="554.5" y="289.3" width="5.3" height="9.1" fill="#22C55E"/>
<line x1="565.7" y1="264.4" x2="565.7" y2="294.6" stroke="#22C55E" stroke-width="1"/>
<rect x="563.1" y="272.7" width="5.3" height="21.9" fill="#22C55E"/>
<line x1="574.3" y1="266.3" x2="574.3" y2="286.9" stroke="#EF4444" stroke-width="1"/>
<rect x="571.6" y="268.9" width="5.3" height="6.6" fill="#EF4444"/>
<line x1="582.8" y1="255.1" x2="582.8" y2="282.3" stroke="#22C55E" stroke-width="1"/>
<rect x="580.2" y="267.2" width="5.3" height="9.5" fill="#22C55E"/>
<line x1="591.4" y1="265.4" x2="591.4" y2="288.9" stroke="#EF4444" stroke-width="1"/>
<rect x="588.7" y="267.1" width="5.3" height="9.8" fill="#EF4444"/>
<line x1="599.9" y1="266.0" x2="599.9" y2="283.0" stroke="#22C55E" stroke-width="1"/>
<rect x="597.3" y="272.3" width="5.3" height="8.1" fill="#22C55E"/>
<line x1="608.5" y1="256.7" x2="608.5" y2="275.9" stroke="#22C55E" stroke-width="1"/>
<rect x="605.8" y="259.0" width="5.3" height="16.6" fill="#22C55E"/>
<line x1="617.0" y1="245.6" x2="617.0" y2="266.5" stroke="#22C55E" stroke-width="1"/>
<rect x="614.4" y="247.8" width="5.3" height="16.0" fill="#22C55E"/>
<line x1="625.6" y1="221.7" x2="625.6" y2="244.3" stroke="#22C55E" stroke-width="1"/>
<rect x="622.9" y="232.2" width="5.3" height="11.0" fill="#22C55E"/>
<line x1="634.2" y1="220.0" x2="634.2" y2="236.9" stroke="#EF4444" stroke-width="1"/>
<rect x="631.5" y="229.2" width="5.3" height="5.0" fill="#EF4444"/>
<line x1="642.7" y1="214.1" x2="642.7" y2="234.3" stroke="#22C55E" stroke-width="1"/>
<rect x="640.1" y="223.9" width="5.3" height="10.3" fill="#22C55E"/>
<line x1="651.3" y1="216.0" x2="651.3" y2="229.2" stroke="#22C55E" stroke-width="1"/>
<rect x="648.6" y="217.2" width="5.3" height="7.5" fill="#22C55E"/>
<line x1="659.8" y1="207.0" x2="659.8" y2="229.3" stroke="#22C55E" stroke-width="1"/>
<rect x="657.2" y="219.0" width="5.3" height="1.1" fill="#22C55E"/>
<line x1="668.4" y1="223.6" x2="668.4" y2="247.7" stroke="#EF4444" stroke-width="1"/>
<rect x="665.7" y="228.9" width="5.3" height="13.5" fill="#EF4444"/>
<line x1="676.9" y1="205.2" x2="676.9" y2="240.9" stroke="#22C55E" stroke-width="1"/>
<rect x="674.3" y="206.2" width="5.3" height="31.5" fill="#22C55E"/>
<line x1="685.5" y1="199.1" x2="685.5" y2="232.1" stroke="#EF4444" stroke-width="1"/>
<rect x="682.8" y="210.4" width="5.3" height="16.0" fill="#EF4444"/>
<line x1="694.0" y1="213.0" x2="694.0" y2="228.8" stroke="#EF4444" stroke-width="1"/>
<rect x="691.4" y="214.3" width="5.3" height="8.1" fill="#EF4444"/>
<line x1="702.6" y1="206.4" x2="702.6" y2="239.0" stroke="#EF4444" stroke-width="1"/>
<rect x="699.9" y="215.8" width="5.3" height="22.5" fill="#EF4444"/>
<line x1="711.1" y1="197.3" x2="711.1" y2="263.4" stroke="#EF4444" stroke-width="1"/>
<rect x="708.5" y="232.5" width="5.3" height="29.3" fill="#EF4444"/>
<line x1="719.7" y1="265.1" x2="719.7" y2="317.9" stroke="#EF4444" stroke-width="1"/>
<rect x="717.0" y="267.0" width="5.3" height="39.6" fill="#EF4444"/>
<line x1="728.2" y1="289.5" x2="728.2" y2="319.5" stroke="#22C55E" stroke-width="1"/>
<rect x="725.6" y="302.4" width="5.3" height="3.4" fill="#22C55E"/>
<line x1="736.8" y1="280.3" x2="736.8" y2="310.5" stroke="#22C55E" stroke-width="1"/>
<rect x="734.1" y="285.9" width="5.3" height="7.8" fill="#22C55E"/>
<line x1="745.4" y1="279.8" x2="745.4" y2="310.4" stroke="#EF4444" stroke-width="1"/>
<rect x="742.7" y="284.3" width="5.3" height="20.0" fill="#EF4444"/>
<line x1="753.9" y1="277.2" x2="753.9" y2="301.9" stroke="#22C55E" stroke-width="1"/>
<rect x="751.3" y="282.7" width="5.3" height="9.4" fill="#22C55E"/>
<line x1="762.5" y1="266.2" x2="762.5" y2="292.7" stroke="#22C55E" stroke-width="1"/>
<rect x="759.8" y="271.2" width="5.3" height="16.2" fill="#22C55E"/>
<line x1="771.0" y1="259.7" x2="771.0" y2="291.1" stroke="#EF4444" stroke-width="1"/>
<rect x="768.4" y="264.7" width="5.3" height="20.0" fill="#EF4444"/>
<line x1="779.6" y1="265.8" x2="779.6" y2="286.0" stroke="#EF4444" stroke-width="1"/>
<rect x="776.9" y="275.8" width="5.3" height="1.0" fill="#EF4444"/>
<line x1="788.1" y1="258.3" x2="788.1" y2="281.3" stroke="#EF4444" stroke-width="1"/>
<rect x="785.5" y="279.1" width="5.3" height="1.2" fill="#EF4444"/>
<line x1="796.7" y1="261.4" x2="796.7" y2="291.8" stroke="#EF4444" stroke-width="1"/>
<rect x="794.0" y="278.1" width="5.3" height="13.2" fill="#EF4444"/>
<line x1="805.2" y1="269.3" x2="805.2" y2="296.9" stroke="#EF4444" stroke-width="1"/>
<rect x="802.6" y="287.0" width="5.3" height="9.3" fill="#EF4444"/>
<line x1="813.8" y1="313.7" x2="813.8" y2="375.0" stroke="#EF4444" stroke-width="1"/>
<rect x="811.1" y="319.4" width="5.3" height="49.9" fill="#EF4444"/>
<line x1="822.3" y1="325.3" x2="822.3" y2="373.1" stroke="#22C55E" stroke-width="1"/>
<rect x="819.7" y="334.2" width="5.3" height="35.8" fill="#22C55E"/>
<line x1="830.9" y1="315.5" x2="830.9" y2="350.2" stroke="#EF4444" stroke-width="1"/>
<rect x="828.2" y="322.2" width="5.3" height="20.3" fill="#EF4444"/>
<line x1="839.4" y1="309.1" x2="839.4" y2="346.7" stroke="#22C55E" stroke-width="1"/>
<rect x="836.8" y="311.4" width="5.3" height="33.3" fill="#22C55E"/>
<line x1="848.0" y1="282.0" x2="848.0" y2="312.1" stroke="#22C55E" stroke-width="1"/>
<rect x="845.3" y="291.0" width="5.3" height="3.8" fill="#22C55E"/>
<line x1="856.6" y1="229.8" x2="856.6" y2="293.9" stroke="#22C55E" stroke-width="1"/>
<rect x="853.9" y="233.0" width="5.3" height="59.1" fill="#22C55E"/>
<line x1="865.1" y1="210.3" x2="865.1" y2="239.6" stroke="#22C55E" stroke-width="1"/>
<rect x="862.5" y="216.6" width="5.3" height="21.6" fill="#22C55E"/>
<line x1="873.7" y1="205.1" x2="873.7" y2="226.8" stroke="#EF4444" stroke-width="1"/>
<rect x="871.0" y="205.9" width="5.3" height="18.9" fill="#EF4444"/>
<line x1="882.2" y1="207.8" x2="882.2" y2="239.4" stroke="#22C55E" stroke-width="1"/>
<rect x="879.6" y="213.6" width="5.3" height="6.0" fill="#22C55E"/>
<line x1="890.8" y1="200.8" x2="890.8" y2="234.9" stroke="#22C55E" stroke-width="1"/>
<rect x="888.1" y="202.1" width="5.3" height="23.3" fill="#22C55E"/>
<line x1="899.3" y1="199.3" x2="899.3" y2="218.6" stroke="#22C55E" stroke-width="1"/>
<rect x="896.7" y="205.7" width="5.3" height="2.4" fill="#22C55E"/>
<line x1="907.9" y1="172.6" x2="907.9" y2="203.9" stroke="#22C55E" stroke-width="1"/>
<rect x="905.2" y="197.6" width="5.3" height="1.2" fill="#22C55E"/>
<line x1="916.4" y1="202.2" x2="916.4" y2="219.6" stroke="#22C55E" stroke-width="1"/>
<rect x="913.8" y="207.6" width="5.3" height="4.5" fill="#22C55E"/>
<line x1="925.0" y1="151.1" x2="925.0" y2="197.6" stroke="#22C55E" stroke-width="1"/>
<rect x="922.3" y="156.1" width="5.3" height="40.2" fill="#22C55E"/>
<line x1="933.5" y1="126.9" x2="933.5" y2="159.0" stroke="#22C55E" stroke-width="1"/>
<rect x="930.9" y="132.7" width="5.3" height="21.4" fill="#22C55E"/>
<line x1="942.1" y1="125.7" x2="942.1" y2="150.0" stroke="#22C55E" stroke-width="1"/>
<rect x="939.4" y="130.7" width="5.3" height="7.2" fill="#22C55E"/>
<line x1="950.6" y1="130.9" x2="950.6" y2="171.7" stroke="#EF4444" stroke-width="1"/>
<rect x="948.0" y="131.7" width="5.3" height="28.2" fill="#EF4444"/>
<line x1="959.2" y1="147.6" x2="959.2" y2="177.6" stroke="#22C55E" stroke-width="1"/>
<rect x="956.5" y="155.2" width="5.3" height="18.8" fill="#22C55E"/>
<line x1="967.8" y1="150.0" x2="967.8" y2="173.1" stroke="#EF4444" stroke-width="1"/>
<rect x="965.1" y="154.6" width="5.3" height="8.1" fill="#EF4444"/>
<line x1="976.3" y1="173.3" x2="976.3" y2="189.3" stroke="#EF4444" stroke-width="1"/>
<rect x="973.7" y="179.6" width="5.3" height="1.0" fill="#EF4444"/>
<line x1="984.9" y1="128.2" x2="984.9" y2="180.1" stroke="#22C55E" stroke-width="1"/>
<rect x="982.2" y="133.7" width="5.3" height="45.7" fill="#22C55E"/>
<line x1="993.4" y1="107.0" x2="993.4" y2="129.6" stroke="#22C55E" stroke-width="1"/>
<rect x="990.8" y="117.8" width="5.3" height="9.7" fill="#22C55E"/>
<line x1="1002.0" y1="93.5" x2="1002.0" y2="123.2" stroke="#22C55E" stroke-width="1"/>
<rect x="999.3" y="104.9" width="5.3" height="1.0" fill="#22C55E"/>
<line x1="1010.5" y1="86.6" x2="1010.5" y2="116.0" stroke="#EF4444" stroke-width="1"/>
<rect x="1007.9" y="106.4" width="5.3" height="6.3" fill="#EF4444"/>
<line x1="1019.1" y1="126.6" x2="1019.1" y2="147.6" stroke="#22C55E" stroke-width="1"/>
<rect x="1016.4" y="132.0" width="5.3" height="1.3" fill="#22C55E"/>
<line x1="1027.6" y1="224.6" x2="1027.6" y2="268.1" stroke="#22C55E" stroke-width="1"/>
<rect x="1025.0" y="231.8" width="5.3" height="16.7" fill="#22C55E"/>
<line x1="1036.2" y1="220.1" x2="1036.2" y2="257.7" stroke="#EF4444" stroke-width="1"/>
<rect x="1033.5" y="229.1" width="5.3" height="25.1" fill="#EF4444"/>
<line x1="1044.7" y1="225.7" x2="1044.7" y2="262.7" stroke="#22C55E" stroke-width="1"/>
<rect x="1042.1" y="229.9" width="5.3" height="27.1" fill="#22C55E"/>
<line x1="1053.3" y1="220.4" x2="1053.3" y2="245.0" stroke="#22C55E" stroke-width="1"/>
<rect x="1050.6" y="223.3" width="5.3" height="6.7" fill="#22C55E"/>
<line x1="1061.8" y1="201.8" x2="1061.8" y2="230.5" stroke="#EF4444" stroke-width="1"/>
<rect x="1059.2" y="209.7" width="5.3" height="7.9" fill="#EF4444"/>
<line x1="1070.4" y1="207.8" x2="1070.4" y2="224.4" stroke="#22C55E" stroke-width="1"/>
<rect x="1067.7" y="213.8" width="5.3" height="7.7" fill="#22C55E"/>
<line x1="1079.0" y1="234.5" x2="1079.0" y2="249.4" stroke="#22C55E" stroke-width="1"/>
<rect x="1076.3" y="234.5" width="5.3" height="5.8" fill="#22C55E"/>
<line x1="1087.5" y1="227.5" x2="1087.5" y2="256.8" stroke="#EF4444" stroke-width="1"/>
<rect x="1084.9" y="236.6" width="5.3" height="11.6" fill="#EF4444"/>
<line x1="1096.1" y1="245.1" x2="1096.1" y2="265.8" stroke="#EF4444" stroke-width="1"/>
<rect x="1093.4" y="247.4" width="5.3" height="11.6" fill="#EF4444"/>
<line x1="1104.6" y1="243.7" x2="1104.6" y2="259.8" stroke="#22C55E" stroke-width="1"/>
<rect x="1102.0" y="246.7" width="5.3" height="4.3" fill="#22C55E"/>
<line x1="1113.2" y1="237.6" x2="1113.2" y2="250.6" stroke="#EF4444" stroke-width="1"/>
<rect x="1110.5" y="243.7" width="5.3" height="1.0" fill="#EF4444"/>
<line x1="1121.7" y1="236.9" x2="1121.7" y2="256.2" stroke="#EF4444" stroke-width="1"/>
<rect x="1119.1" y="242.8" width="5.3" height="5.1" fill="#EF4444"/>
<polyline points="18.3,438.2 26.8,436.8 35.4,436.2 43.9,436.1 52.5,436.0 61.0,435.6 69.6,435.3 78.2,435.2 86.7,434.6 95.3,433.8 103.8,432.8 112.4,431.8 120.9,431.2 129.5,431.0 138.0,430.8 146.6,430.5" fill="none" stroke="#7DD3FC" stroke-width="2.4" stroke-opacity="0.95" stroke-linejoin="round"/><polyline points="146.6,430.5 155.1,430.6 163.7,430.8 172.2,431.0 180.8,431.0" fill="none" stroke="#D9A521" stroke-width="2.4" stroke-opacity="0.95" stroke-linejoin="round"/><polyline points="180.8,431.0 189.4,431.0" fill="none" stroke="#7DD3FC" stroke-width="2.4" stroke-opacity="0.95" stroke-linejoin="round"/><polyline points="189.4,431.0 197.9,431.2 206.5,431.7 215.0,432.3 223.6,432.7 232.1,433.2 240.7,433.9 249.2,434.8 257.8,435.3 266.3,435.7 274.9,436.1 283.4,436.5 292.0,437.0 300.6,437.7 309.1,438.2 317.7,438.5 326.2,438.8" fill="none" stroke="#D9A521" stroke-width="2.4" stroke-opacity="0.95" stroke-linejoin="round"/><polyline points="326.2,438.8 334.8,438.7" fill="none" stroke="#7DD3FC" stroke-width="2.4" stroke-opacity="0.95" stroke-linejoin="round"/><polyline points="334.8,438.7 343.3,439.2" fill="none" stroke="#D9A521" stroke-width="2.4" stroke-opacity="0.95" stroke-linejoin="round"/><polyline points="343.3,439.2 351.9,439.2 360.4,439.2 369.0,439.0 377.5,439.0 386.1,438.8 394.6,438.6 403.2,438.1 411.8,437.3 420.3,436.3 428.9,435.6 437.4,434.8 446.0,433.7 454.5,432.9 463.1,432.4 471.6,431.6 480.2,430.9 488.7,430.0 497.3,428.4 505.8,427.2 514.4,425.8 523.0,424.1 531.5,422.2 540.1,420.0 548.6,417.9 557.2,415.8 565.7,413.4 574.3,411.0 582.8,408.5 591.4,406.2 599.9,403.9 608.5,401.5 617.0,398.9 625.6,396.0 634.2,393.1 642.7,390.1 651.3,387.2 659.8,384.2 668.4,381.6 676.9,378.8 685.5,376.0 694.0,373.3 702.6,370.6 711.1,368.2 719.7,366.8 728.2,365.7 736.8,364.5 745.4,363.3 753.9,362.0 762.5,360.5 771.0,359.0 779.6,357.6 788.1,356.1 796.7,354.7 805.2,353.4 813.8,353.2 822.3,353.2 830.9,352.8 839.4,352.4 848.0,351.4 856.6,349.8 865.1,347.7 873.7,345.3 882.2,343.2 890.8,341.0 899.3,338.7 907.9,336.1 916.4,333.9 925.0,331.1 933.5,327.8 942.1,324.5 950.6,321.4 959.2,318.6 967.8,315.9 976.3,313.5 984.9,310.7 993.4,307.4 1002.0,303.9 1010.5,300.3 1019.1,297.5 1027.6,296.6 1036.2,295.6 1044.7,294.7 1053.3,293.6 1061.8,292.2 1070.4,290.9 1079.0,290.0 1087.5,289.2 1096.1,288.6 1104.6,288.0 1113.2,287.2 1121.7,286.5" fill="none" stroke="#7DD3FC" stroke-width="2.4" stroke-opacity="0.95" stroke-linejoin="round"/>
<polyline points="18.3,407.4 26.8,404.2 35.4,403.8" fill="none" stroke="#3B82F6" stroke-width="2.2" stroke-opacity="1.0" stroke-linejoin="round"/><polyline points="35.4,403.8 43.9,406.0 52.5,407.4 61.0,407.7 69.6,408.7 78.2,409.8" fill="none" stroke="#FBBF24" stroke-width="2.2" stroke-opacity="1.0" stroke-linejoin="round"/><polyline points="78.2,409.8 86.7,409.5 95.3,407.8 103.8,405.8 112.4,403.8 120.9,403.4" fill="none" stroke="#3B82F6" stroke-width="2.2" stroke-opacity="1.0" stroke-linejoin="round"/><polyline points="120.9,403.4 129.5,404.4 138.0,405.4 146.6,406.1 155.1,408.0 163.7,410.5 172.2,412.6 180.8,414.0 189.4,414.9 197.9,416.9 206.5,419.9 215.0,422.9 223.6,425.2 232.1,427.8 240.7,430.9 249.2,434.4 257.8,436.3 266.3,438.1 274.9,439.4 283.4,440.6 292.0,442.2 300.6,444.7 309.1,446.2 317.7,446.6 326.2,447.4" fill="none" stroke="#FBBF24" stroke-width="2.2" stroke-opacity="1.0" stroke-linejoin="round"/><polyline points="326.2,447.4 334.8,446.5" fill="none" stroke="#3B82F6" stroke-width="2.2" stroke-opacity="1.0" stroke-linejoin="round"/><polyline points="334.8,446.5 343.3,447.9" fill="none" stroke="#FBBF24" stroke-width="2.2" stroke-opacity="1.0" stroke-linejoin="round"/><polyline points="343.3,447.9 351.9,447.3 360.4,446.6 369.0,445.3 377.5,444.8 386.1,444.0 394.6,442.5 403.2,440.5 411.8,437.2 420.3,433.4 428.9,430.7 437.4,427.9 446.0,424.3 454.5,421.6 463.1,420.3 471.6,418.0 480.2,416.4 488.7,414.0 497.3,408.9 505.8,405.4 514.4,401.5 523.0,396.7 531.5,391.0 540.1,384.7 548.6,379.0 557.2,373.1 565.7,366.7 574.3,360.5 582.8,354.3 591.4,349.0 599.9,343.9 608.5,338.6 617.0,333.0 625.6,326.2 634.2,319.5 642.7,313.0 651.3,306.8 659.8,300.8 668.4,296.3 676.9,291.3 685.5,286.2 694.0,281.7 702.6,277.7 711.1,274.4" fill="none" stroke="#3B82F6" stroke-width="2.2" stroke-opacity="1.0" stroke-linejoin="round"/><polyline points="711.1,274.4 719.7,275.6 728.2,277.6 736.8,278.8 745.4,279.9 753.9,280.6" fill="none" stroke="#FBBF24" stroke-width="2.2" stroke-opacity="1.0" stroke-linejoin="round"/><polyline points="753.9,280.6 762.5,280.5 771.0,280.1 779.6,279.8 788.1,279.2 796.7,279.0" fill="none" stroke="#3B82F6" stroke-width="2.2" stroke-opacity="1.0" stroke-linejoin="round"/><polyline points="796.7,279.0 805.2,279.3 813.8,283.7 822.3,288.2 830.9,291.2 839.4,293.7 848.0,294.0" fill="none" stroke="#FBBF24" stroke-width="2.2" stroke-opacity="1.0" stroke-linejoin="round"/><polyline points="848.0,294.0 856.6,291.8 865.1,287.2 873.7,282.3 882.2,278.3 890.8,274.2 899.3,269.8 907.9,264.2 916.4,260.6 925.0,254.7 933.5,247.0 942.1,239.6 950.6,233.6 959.2,228.7 967.8,224.1 976.3,221.2 984.9,216.6 993.4,209.9 1002.0,203.0 1010.5,196.1 1019.1,192.0" fill="none" stroke="#3B82F6" stroke-width="2.2" stroke-opacity="1.0" stroke-linejoin="round"/><polyline points="1019.1,192.0 1027.6,195.7 1036.2,198.7 1044.7,201.8 1053.3,203.9 1061.8,204.7 1070.4,205.5 1079.0,208.0 1087.5,210.3 1096.1,213.4 1104.6,216.0 1113.2,217.9 1121.7,219.9" fill="none" stroke="#FBBF24" stroke-width="2.2" stroke-opacity="1.0" stroke-linejoin="round"/>
<polygon points="43.9,454.5 39.9,462.5 47.9,462.5" fill="#A3E635" fill-opacity="0.95"/>
<polygon points="163.7,458.9 159.7,466.9 167.7,466.9" fill="#A3E635" fill-opacity="0.95"/>
<polygon points="197.9,459.7 193.9,467.7 201.9,467.7" fill="#A3E635" fill-opacity="0.95"/>
<polygon points="206.5,478.7 202.5,486.7 210.5,486.7" fill="#FDE047" fill-opacity="0.95"/>
<polygon points="719.7,322.9 715.7,330.9 723.7,330.9" fill="#A3E635" fill-opacity="0.95"/>
<polygon points="813.8,380.0 809.8,388.0 817.8,388.0" fill="#FDE047" fill-opacity="0.95"/>
<polygon points="822.3,378.1 818.3,386.1 826.3,386.1" fill="#A3E635" fill-opacity="0.95"/>
<polygon points="830.9,355.2 826.9,363.2 834.9,363.2" fill="#A3E635" fill-opacity="0.95"/>
<polygon points="1036.2,262.7 1032.2,270.7 1040.2,270.7" fill="#A3E635" fill-opacity="0.95"/>
<polygon points="1087.5,261.8 1083.5,269.8 1091.5,269.8" fill="#A3E635" fill-opacity="0.95"/>
<polygon points="1096.1,270.8 1092.1,278.8 1100.1,278.8" fill="#A3E635" fill-opacity="0.95"/>
<text x="14" y="24" font-size="14" font-weight="bold" fill="#E6EEF7">AAPL &#183; daily &#183; Kalman-Keltner chart study &#8212; replicated from the production Python engine</text>
<text x="14" y="41" font-size="10" fill="#7C8B9A">Real daily bars through 2026-08-17 &#183; illustrative parameters, not the tuned production values &#183; 752 bars computed, last 130 shown</text>
<line x1="14" y1="556" x2="30" y2="556" stroke="#3B82F6" stroke-width="2.4"/>
<text x="35" y="560" font-size="9.5" fill="#7C8B9A">centerline rising</text>
<line x1="125.0" y1="556" x2="141.0" y2="556" stroke="#FBBF24" stroke-width="2.4"/>
<text x="146.0" y="560" font-size="9.5" fill="#7C8B9A">centerline falling</text>
<line x1="241.0" y1="556" x2="257.0" y2="556" stroke="#7DD3FC" stroke-width="2.4"/>
<text x="262.0" y="560" font-size="9.5" fill="#7C8B9A">drift rising</text>
<line x1="327.0" y1="556" x2="343.0" y2="556" stroke="#D9A521" stroke-width="2.4"/>
<text x="348.0" y="560" font-size="9.5" fill="#7C8B9A">drift falling</text>
<line x1="418.0" y1="556" x2="434.0" y2="556" stroke="#22C55E" stroke-width="2.4"/>
<text x="439.0" y="560" font-size="9.5" fill="#7C8B9A">inner bands &#183; bullish drift</text>
<line x1="579.0" y1="556" x2="595.0" y2="556" stroke="#EF4444" stroke-width="2.4"/>
<text x="600.0" y="560" font-size="9.5" fill="#7C8B9A">inner bands &#183; bearish drift</text>
<line x1="740.0" y1="556" x2="756.0" y2="556" stroke="#5B6B7A" stroke-width="2.4"/>
<text x="761.0" y="560" font-size="9.5" fill="#7C8B9A">outer bands</text>
<polygon points="827.0,551 823.0,559 831.0,559" fill="#FDE047"/>
<text x="837.0" y="560" font-size="9.5" fill="#7C8B9A">zone hit (2 outer, 9 inter)</text>
</svg>
